<svg width="89" height="20" fill="none" xmlns="http://www.w3.org/2000/svg"><path d="m11.563 0 11.562 20H0L11.563 0ZM49.875 10.625c0-3.219-2.375-5.469-5.781-5.469-3.407 0-5.782 2.25-5.782 5.469 0 3.156 2.563 5.469 6.094 5.469 1.938 0 3.688-.719 4.813-2.032l-2.125-1.218c-.657.656-1.625 1.062-2.688 1.062-1.562 0-2.906-.844-3.375-2.125l-.093-.219h8.843c.063-.312.094-.624.094-.937Zm-8.969-.938.063-.187c.406-1.344 1.593-2.156 3.093-2.156 1.532 0 2.688.812 3.094 2.156l.063.188h-6.313ZM83.531 10.625c0-3.219-2.375-5.469-5.781-5.469-3.406 0-5.781 2.25-5.781 5.469 0 3.156 2.562 5.469 6.094 5.469 1.937 0 3.687-.719 4.812-2.032l-2.125-1.218c-.656.656-1.625 1.062-2.688 1.062-1.562 0-2.906-.844-3.374-2.125l-.094-.219h8.844a4.77 4.77 0 0 0 .093-.937Zm-8.969-.938.063-.187c.406-1.344 1.594-2.156 3.094-2.156 1.531 0 2.687.812 3.094 2.156l.062.188h-6.313ZM68.531 8.844l2.125-1.219c-1-1.563-2.781-2.438-4.937-2.438-3.406 0-5.781 2.25-5.781 5.47 0 3.218 2.374 5.468 5.78 5.468 2.157 0 3.938-.875 4.938-2.438l-2.125-1.218c-.562.937-1.562 1.469-2.812 1.469-1.969 0-3.281-1.313-3.281-3.282s1.312-3.281 3.28-3.281c1.22 0 2.25.531 2.813 1.469ZM88.219 1.75h-2.5v14.063h2.5V1.75ZM40.156 1.75h-2.875l-5.5 9.5-5.5-9.5h-2.906l8.406 14.5 8.375-14.5ZM57.844 8.063c.281 0 .562.03.843.093V5.5c-2.124.063-4.124 1.25-4.124 2.719V5.5h-2.5v10.313h2.5v-4.47c0-1.937 1.343-3.28 3.28-3.28Z" fill="#fff"/></svg>